# xmcd
#
# Track frame offsets:
#	150
#	25546
#	44766
#	64987
#	82528
#	98725
#	114765
#	134487
#	158182
#	176217
#	188888
#	203469
#	221404
#	240346
#	261333
#	278079
#	291122
#
# Disc length: 4317 seconds
#
# Revision: 0
# Processed by: cddbd v1.5.2PL0 Copyright (c) Steve Scherf et al.
# Submitted via: dBpowerAMP V4.0
#
DISCID=e810db11
DTITLE=JJ cale and Eric Clapton - Escondido
DYEAR=1900
DGENRE=Blues
TTITLE0=Danger
TTITLE1=Heads in Georgia
TTITLE2=Missing Person
TTITLE3=When This War Is Over
TTITLE4=Sporting Life Blues
TTITLE5=Dead End Road
TTITLE6=It's Easy
TTITLE7=Hard to Thrill
TTITLE8=Anyway the Wind Blows
TTITLE9=Three Little Girls
TTITLE10=Don't Cry Sister
TTITLE11=Last Will and Testament
TTITLE12=Who Am I Telling You?
TTITLE13=Ride the River
TTITLE14=Bonus 1
TTITLE15=Bonus 2
TTITLE16=Bonus 3
EXTD=
EXTT0=
EXTT1=
EXTT2=
EXTT3=
EXTT4=
EXTT5=
EXTT6=
EXTT7=
EXTT8=
EXTT9=
EXTT10=
EXTT11=
EXTT12=
EXTT13=
EXTT14=
EXTT15=
EXTT16=
PLAYORDER=
